<svg xmlns="http://www.w3.org/2000/svg" xmlns:xlink="http://www.w3.org/1999/xlink" width="256" zoomAndPan="magnify" viewBox="0 0 192 191.999996" height="256" preserveAspectRatio="xMidYMid meet" version="1.0"><defs><clipPath id="033e8a0a19"><path d="M 167.28125 170.441406 L 192 170.441406 L 192 192 L 167.28125 192 Z M 167.28125 170.441406 " clip-rule="nonzero"/></clipPath></defs><rect x="-19.2" width="230.4" fill="#ffffff" y="-19.2" height="230.399995" fill-opacity="1"/><rect x="-19.2" width="230.4" fill="#ffffff" y="-19.2" height="230.399995" fill-opacity="1"/><g clip-path="url(#033e8a0a19)"><path fill="#ffffff" d="M 184.414062 170.441406 C 174.949219 170.441406 167.28125 178.105469 167.28125 187.574219 C 167.28125 197.039062 174.949219 204.707031 184.414062 204.707031 C 193.878906 204.707031 201.546875 197.039062 201.546875 187.574219 C 201.546875 178.105469 193.878906 170.441406 184.414062 170.441406 Z M 184.414062 201.277344 C 176.84375 201.277344 170.707031 195.144531 170.707031 187.574219 C 170.707031 180 176.84375 173.867188 184.414062 173.867188 C 191.988281 173.867188 198.121094 180 198.121094 187.574219 C 198.121094 195.144531 191.988281 201.277344 184.414062 201.277344 Z M 184.414062 201.277344 " fill-opacity="1" fill-rule="nonzero"/></g><path fill="#ffae02" d="M 120.417969 93.992188 C 120.417969 116.003906 102.574219 133.847656 80.558594 133.847656 C 58.546875 133.847656 40.703125 116.003906 40.703125 93.992188 C 40.703125 71.976562 58.546875 54.132812 80.558594 54.132812 C 102.574219 54.132812 120.417969 71.976562 120.417969 93.992188 Z M 120.417969 93.992188 " fill-opacity="1" fill-rule="nonzero"/><path fill="#fe6c30" d="M 120.417969 93.992188 C 120.417969 116 102.574219 133.847656 80.558594 133.847656 C 67.925781 133.847656 56.664062 127.964844 49.363281 118.796875 C 55.535156 122.71875 62.859375 124.992188 70.714844 124.992188 C 92.726562 124.992188 110.570312 107.148438 110.570312 85.136719 C 110.570312 75.761719 107.335938 67.140625 101.914062 60.332031 C 113.035156 67.402344 120.417969 79.832031 120.417969 93.992188 Z M 120.417969 93.992188 " fill-opacity="0.5" fill-rule="nonzero"/><path fill="#fe6c30" d="M 63.714844 71.386719 C 63.714844 71.386719 59.894531 73.550781 58.289062 76.917969 C 56.683594 80.285156 56.148438 85.007812 52.035156 83.644531 C 47.921875 82.28125 50.273438 76.871094 52.222656 74.414062 C 54.171875 71.957031 60.800781 67.8125 62.800781 68.132812 C 64.804688 68.457031 65.484375 70.160156 63.714844 71.386719 Z M 63.714844 71.386719 " fill-opacity="0.5" fill-rule="nonzero"/><path fill="#fe6c30" d="M 103.601562 92.0625 C 103.601562 93.035156 102.8125 93.820312 101.839844 93.820312 C 100.871094 93.820312 100.082031 93.035156 100.082031 92.0625 C 100.082031 91.089844 100.871094 90.300781 101.839844 90.300781 C 102.8125 90.300781 103.601562 91.089844 103.601562 92.0625 Z M 103.601562 92.0625 " fill-opacity="0.5" fill-rule="nonzero"/><path fill="#fe6c30" d="M 102.90625 99.390625 C 102.90625 102.109375 99.757812 104.316406 95.871094 104.316406 C 91.984375 104.316406 88.835938 102.109375 88.835938 99.390625 C 88.835938 96.675781 91.984375 94.46875 95.871094 94.46875 C 99.757812 94.46875 102.90625 96.675781 102.90625 99.390625 Z M 102.90625 99.390625 " fill-opacity="0.5" fill-rule="nonzero"/><path fill="#fe6c30" d="M 106.953125 96.125 C 106.324219 97.433594 105.105469 98.152344 104.230469 97.734375 C 103.351562 97.316406 103.148438 95.914062 103.773438 94.605469 C 104.402344 93.296875 105.621094 92.578125 106.496094 92.996094 C 107.375 93.417969 107.578125 94.816406 106.953125 96.125 Z M 106.953125 96.125 " fill-opacity="0.5" fill-rule="nonzero"/><path fill="#fe6c30" d="M 68.519531 65.90625 C 68.519531 66.585938 67.734375 67.132812 66.765625 67.132812 C 65.800781 67.132812 65.015625 66.585938 65.015625 65.90625 C 65.015625 65.230469 65.800781 64.683594 66.765625 64.683594 C 67.734375 64.683594 68.519531 65.230469 68.519531 65.90625 Z M 68.519531 65.90625 " fill-opacity="0.5" fill-rule="nonzero"/><path fill="#fe6c30" d="M 79.144531 19.554688 C 79.144531 19.554688 74.21875 44.566406 74.21875 44.566406 C 74.011719 45.617188 74.816406 46.597656 75.890625 46.597656 C 75.890625 46.597656 80.816406 46.597656 80.816406 46.597656 C 80.816406 46.597656 85.738281 46.597656 85.738281 46.597656 C 86.8125 46.597656 87.617188 45.617188 87.410156 44.566406 C 87.410156 44.566406 82.484375 19.554688 82.484375 19.554688 C 82.125 17.722656 79.503906 17.722656 79.144531 19.554688 Z M 79.144531 19.554688 " fill-opacity="1" fill-rule="nonzero"/><path fill="#ffae02" d="M 42.742188 30.207031 C 42.742188 30.207031 50.980469 54.328125 50.980469 54.328125 C 51.328125 55.339844 52.515625 55.785156 53.445312 55.25 C 53.445312 55.25 57.707031 52.789062 57.707031 52.789062 C 57.707031 52.789062 61.972656 50.328125 61.972656 50.328125 C 62.902344 49.789062 63.109375 48.539062 62.402344 47.730469 C 62.402344 47.730469 45.636719 28.535156 45.636719 28.535156 C 44.40625 27.128906 42.136719 28.4375 42.742188 30.207031 Z M 42.742188 30.207031 " fill-opacity="1" fill-rule="nonzero"/><path fill="#fe6c30" d="M 16.539062 57.628906 C 16.539062 57.628906 35.734375 74.398438 35.734375 74.398438 C 36.542969 75.105469 37.792969 74.898438 38.332031 73.96875 C 38.332031 73.96875 40.792969 69.703125 40.792969 69.703125 C 40.792969 69.703125 43.253906 65.4375 43.253906 65.4375 C 43.792969 64.511719 43.347656 63.324219 42.332031 62.976562 C 42.332031 62.976562 18.210938 54.734375 18.210938 54.734375 C 16.441406 54.132812 15.132812 56.402344 16.539062 57.628906 Z M 16.539062 57.628906 " fill-opacity="1" fill-rule="nonzero"/><path fill="#ffae02" d="M 7.558594 94.480469 C 7.558594 94.480469 32.570312 99.40625 32.570312 99.40625 C 33.621094 99.613281 34.601562 98.808594 34.601562 97.734375 C 34.601562 97.734375 34.601562 92.808594 34.601562 92.808594 C 34.601562 92.808594 34.601562 87.886719 34.601562 87.886719 C 34.601562 86.8125 33.621094 86.007812 32.570312 86.214844 C 32.570312 86.214844 7.558594 91.136719 7.558594 91.136719 C 5.726562 91.5 5.726562 94.121094 7.558594 94.480469 Z M 7.558594 94.480469 " fill-opacity="1" fill-rule="nonzero"/><path fill="#fe6c30" d="M 18.210938 130.886719 C 18.210938 130.886719 42.328125 122.644531 42.328125 122.644531 C 43.34375 122.296875 43.789062 121.109375 43.253906 120.183594 C 43.253906 120.183594 40.792969 115.917969 40.792969 115.917969 C 40.792969 115.917969 38.332031 111.652344 38.332031 111.652344 C 37.796875 110.722656 36.542969 110.515625 35.734375 111.222656 C 35.734375 111.222656 16.539062 127.992188 16.539062 127.992188 C 15.132812 129.21875 16.441406 131.488281 18.210938 130.886719 Z M 18.210938 130.886719 " fill-opacity="1" fill-rule="nonzero"/><path fill="#ffae02" d="M 45.636719 157.085938 C 45.636719 157.085938 62.402344 137.890625 62.402344 137.890625 C 63.109375 137.082031 62.902344 135.832031 61.972656 135.292969 C 61.972656 135.292969 57.707031 132.832031 57.707031 132.832031 C 57.707031 132.832031 53.445312 130.371094 53.445312 130.371094 C 52.515625 129.835938 51.328125 130.28125 50.980469 131.296875 C 50.980469 131.296875 42.742188 155.414062 42.742188 155.414062 C 42.136719 157.183594 44.40625 158.492188 45.636719 157.085938 Z M 45.636719 157.085938 " fill-opacity="1" fill-rule="nonzero"/><path fill="#ffae02" d="M 118.890625 155.414062 C 118.890625 155.414062 110.648438 131.296875 110.648438 131.296875 C 110.304688 130.28125 109.113281 129.835938 108.1875 130.371094 C 108.1875 130.371094 103.921875 132.832031 103.921875 132.832031 C 103.921875 132.832031 99.65625 135.292969 99.65625 135.292969 C 98.726562 135.828125 98.519531 137.082031 99.226562 137.890625 C 99.226562 137.890625 115.996094 157.085938 115.996094 157.085938 C 117.222656 158.492188 119.492188 157.183594 118.890625 155.414062 Z M 118.890625 155.414062 " fill-opacity="1" fill-rule="nonzero"/><path fill="#fe6c30" d="M 145.089844 127.988281 C 145.089844 127.988281 125.894531 111.222656 125.894531 111.222656 C 125.085938 110.515625 123.835938 110.722656 123.296875 111.652344 C 123.296875 111.652344 120.835938 115.917969 120.835938 115.917969 C 120.835938 115.917969 118.375 120.179688 118.375 120.179688 C 117.839844 121.109375 118.285156 122.296875 119.300781 122.644531 C 119.300781 122.644531 143.417969 130.882812 143.417969 130.882812 C 145.1875 131.488281 146.496094 129.21875 145.089844 127.988281 Z M 145.089844 127.988281 " fill-opacity="1" fill-rule="nonzero"/><path fill="#ffae02" d="M 154.070312 91.136719 C 154.070312 91.136719 129.058594 86.214844 129.058594 86.214844 C 128.007812 86.007812 127.027344 86.8125 127.027344 87.886719 C 127.027344 87.886719 127.027344 92.808594 127.027344 92.808594 C 127.027344 92.808594 127.027344 97.734375 127.027344 97.734375 C 127.027344 98.808594 128.007812 99.613281 129.058594 99.40625 C 129.058594 99.40625 154.070312 94.480469 154.070312 94.480469 C 155.902344 94.121094 155.902344 91.5 154.070312 91.136719 Z M 154.070312 91.136719 " fill-opacity="1" fill-rule="nonzero"/><path fill="#fe6c30" d="M 143.417969 54.734375 C 143.417969 54.734375 119.296875 62.976562 119.296875 62.976562 C 118.28125 63.320312 117.835938 64.511719 118.375 65.4375 C 118.375 65.4375 120.835938 69.703125 120.835938 69.703125 C 120.835938 69.703125 123.296875 73.96875 123.296875 73.96875 C 123.835938 74.898438 125.085938 75.105469 125.894531 74.398438 C 125.894531 74.398438 145.089844 57.628906 145.089844 57.628906 C 146.496094 56.402344 145.1875 54.132812 143.417969 54.734375 Z M 143.417969 54.734375 " fill-opacity="1" fill-rule="nonzero"/><path fill="#ffae02" d="M 115.996094 28.535156 C 115.996094 28.535156 99.222656 47.730469 99.222656 47.730469 C 98.519531 48.539062 98.726562 49.789062 99.65625 50.328125 C 99.65625 50.328125 103.921875 52.789062 103.921875 52.789062 C 103.921875 52.789062 108.183594 55.25 108.183594 55.25 C 109.113281 55.789062 110.300781 55.339844 110.648438 54.328125 C 110.648438 54.328125 118.890625 30.207031 118.890625 30.207031 C 119.492188 28.4375 117.222656 27.128906 115.996094 28.535156 Z M 115.996094 28.535156 " fill-opacity="1" fill-rule="nonzero"/><path fill="#fe6c30" d="M 82.488281 166.066406 C 82.488281 166.066406 87.410156 141.054688 87.410156 141.054688 C 87.617188 140.003906 86.8125 139.023438 85.738281 139.023438 C 85.738281 139.023438 80.816406 139.023438 80.816406 139.023438 C 80.816406 139.023438 75.890625 139.023438 75.890625 139.023438 C 74.816406 139.023438 74.011719 140.003906 74.21875 141.054688 C 74.21875 141.054688 79.144531 166.066406 79.144531 166.066406 C 79.503906 167.898438 82.125 167.898438 82.488281 166.066406 Z M 82.488281 166.066406 " fill-opacity="1" fill-rule="nonzero"/><path fill="#9dc7e2" d="M 110.347656 110.589844 C 110.347656 110.589844 111.125 96.800781 122.585938 95.832031 C 134.042969 94.859375 140.839844 105.734375 140.839844 105.734375 C 140.839844 105.734375 152.878906 99.714844 154.628906 112.144531 C 154.628906 112.144531 173.078125 99.910156 182.980469 116.609375 C 182.980469 116.609375 189 127.484375 178.707031 133.507812 C 178.707031 133.507812 183.953125 136.613281 182.011719 142.050781 C 180.066406 147.488281 172.882812 145.742188 172.882812 145.742188 C 172.882812 145.742188 173.660156 160.695312 157.347656 163.800781 C 141.035156 166.910156 139.089844 158.171875 139.089844 158.171875 C 139.089844 158.171875 136.179688 164.578125 125.496094 160.113281 C 125.496094 160.113281 122 169.628906 106.078125 168.460938 C 90.152344 167.296875 88.597656 151.179688 88.597656 151.179688 C 88.597656 151.179688 82.773438 156.617188 79.664062 147.683594 C 79.664062 147.683594 63.546875 148.460938 67.625 130.203125 C 71.703125 111.949219 93.261719 121.078125 93.261719 121.078125 C 93.261719 121.078125 96.5625 116.609375 99.472656 119.136719 C 99.472656 119.136719 98.113281 106.125 110.347656 110.589844 Z M 110.347656 110.589844 " fill-opacity="1" fill-rule="nonzero"/><path fill="#15130d" d="M 68.34375 128.578125 C 68.429688 128.085938 68.59375 127.601562 68.769531 127.132812 C 69.199219 125.980469 69.800781 124.894531 70.546875 123.917969 C 71.585938 122.5625 72.921875 121.441406 74.425781 120.640625 C 76.496094 119.535156 78.847656 119.054688 81.179688 118.976562 C 84.710938 118.859375 88.238281 119.605469 91.59375 120.65625 C 92.136719 120.824219 92.675781 121.003906 93.214844 121.195312 C 93.300781 121.222656 93.453125 121.273438 93.515625 121.179688 C 93.835938 120.714844 94.234375 120.292969 94.648438 119.914062 C 95.402344 119.21875 96.351562 118.578125 97.410156 118.511719 C 98.125 118.46875 98.753906 118.742188 99.304688 119.183594 C 99.371094 119.238281 99.746094 119.386719 99.734375 119.203125 C 99.652344 117.839844 99.816406 116.417969 100.140625 115.097656 C 100.703125 112.800781 102.011719 110.570312 104.441406 109.9375 C 106.394531 109.425781 108.480469 109.984375 110.304688 110.707031 C 110.375 110.734375 110.609375 110.796875 110.609375 110.65625 C 110.625 109.269531 110.890625 107.851562 111.234375 106.515625 C 111.957031 103.738281 113.277344 101.050781 115.414062 99.089844 C 116.886719 97.742188 118.679688 96.824219 120.617188 96.339844 C 120.738281 96.308594 120.640625 96.1875 120.585938 96.144531 C 120.492188 96.070312 120.335938 96.015625 120.21875 96.046875 C 118.464844 96.488281 116.804688 97.277344 115.40625 98.429688 C 114.207031 99.417969 113.222656 100.644531 112.449219 101.984375 C 111.222656 104.125 110.507812 106.558594 110.210938 109.003906 C 110.148438 109.503906 110.09375 110.015625 110.089844 110.523438 C 110.191406 110.507812 110.292969 110.492188 110.394531 110.472656 C 108.636719 109.773438 106.671875 109.234375 104.761719 109.503906 C 103.46875 109.6875 102.285156 110.273438 101.410156 111.25 C 100.613281 112.140625 100.097656 113.242188 99.761719 114.378906 C 99.46875 115.378906 99.3125 116.414062 99.238281 117.449219 C 99.214844 117.808594 99.203125 118.164062 99.203125 118.523438 C 99.203125 118.683594 99.171875 118.886719 99.210938 119.046875 C 99.214844 119.050781 99.214844 119.0625 99.214844 119.070312 C 99.355469 119.074219 99.5 119.082031 99.644531 119.085938 C 98.585938 118.234375 97.234375 117.953125 95.960938 118.476562 C 94.980469 118.875 94.148438 119.597656 93.464844 120.394531 C 93.300781 120.582031 93.144531 120.773438 93.003906 120.976562 C 93.101562 120.972656 93.203125 120.964844 93.304688 120.960938 C 89.71875 119.707031 85.964844 118.753906 82.148438 118.664062 C 79.648438 118.605469 77.09375 118.945312 74.796875 119.972656 C 73.136719 120.710938 71.648438 121.792969 70.46875 123.175781 C 69.605469 124.183594 68.90625 125.328125 68.402344 126.550781 C 68.242188 126.945312 68.097656 127.347656 67.984375 127.753906 C 67.929688 127.9375 67.839844 128.160156 67.835938 128.351562 C 67.835938 128.359375 67.832031 128.367188 67.832031 128.378906 C 67.796875 128.5625 68.320312 128.730469 68.34375 128.578125 Z M 68.34375 128.578125 " fill-opacity="1" fill-rule="nonzero"/></svg>